<?xml version="1.0" encoding="utf-8"?>
<!-- Generator: Adobe Illustrator 16.0.0, SVG Export Plug-In . SVG Version: 6.00 Build 0)  -->
<!DOCTYPE svg PUBLIC "-//W3C//DTD SVG 1.1//EN" "http://www.w3.org/Graphics/SVG/1.1/DTD/svg11.dtd">
<svg version="1.1" id="图层_1" xmlns="http://www.w3.org/2000/svg" xmlns:xlink="http://www.w3.org/1999/xlink" x="0px" y="0px"
	 width="141.73px" height="141.73px" viewBox="0 0 141.73 141.73" enable-background="new 0 0 141.73 141.73" xml:space="preserve">
<polygon fill="#0894ec" points="121.595,79.823 90.649,79.823 90.649,69.734 77.628,81.456 90.649,93.176 90.649,83.088 
	121.595,83.088 "/>
<path fill="#0894ec" d="M60.063,70.744h-18.73c-0.901,0-1.632,0.731-1.632,1.631v13.043c0,0.9,0.73,1.631,1.632,1.631h18.73
	c0.9,0,1.633-0.73,1.633-1.631V72.375C61.696,71.475,60.964,70.744,60.063,70.744z M58.433,83.785H42.965v-9.777h15.467V83.785z"/>
<path fill="#0894ec" d="M117.954,116.859h-2.271v3.265h2.271c0.901,0,1.633-0.731,1.633-1.632
	C119.587,117.59,118.855,116.859,117.954,116.859z"/>
<rect x="91.07" y="116.859" fill="#0894ec" width="0.508" height="3.265"/>
<path fill="none" d="M99.43,104.455c-3.421,0-6.202,2.781-6.202,6.202c0,3.42,2.781,6.202,6.202,6.202
	c3.419,0,6.202-2.782,6.202-6.202C105.632,107.236,102.849,104.455,99.43,104.455z"/>
<path fill="none" d="M128.909,66.448c0-1.631-1.329-2.96-2.961-2.96h-53.99c-1.633,0-2.961,1.329-2.961,2.96v33.111h59.912V66.448z"
	/>
<path fill="none" d="M67.365,102.822c-0.9,0-1.632-0.732-1.632-1.633v-2.17V67.686H42.127c-3.215,0-5.827,2.613-5.827,5.827v35.511
	h2.08c0.78-4.44,4.643-7.832,9.303-7.832c4.661,0,8.523,3.392,9.303,7.832h33.143c0.451-2.568,1.918-4.79,3.997-6.201H67.365z"/>
<path fill="none" d="M47.683,104.455c-3.421,0-6.203,2.781-6.203,6.202c0,3.42,2.781,6.202,6.203,6.202
	c3.422,0,6.203-2.782,6.203-6.202C53.886,107.236,51.104,104.455,47.683,104.455z"/>
<path fill="none" d="M56.985,112.289c-0.305,1.736-1.092,3.295-2.209,4.57h37.559c-1.115-1.275-1.902-2.834-2.207-4.57H56.985z"/>
<path fill="none" d="M108.729,112.289c-0.304,1.736-1.09,3.295-2.207,4.57h9.09c-1.115-1.275-1.903-2.834-2.208-4.57H108.729z"/>
<path fill="none" d="M122.705,104.455c-3.417,0-6.202,2.781-6.202,6.202c0,3.42,2.785,6.202,6.202,6.202
	c3.421,0,6.204-2.782,6.204-6.202C128.909,107.236,126.126,104.455,122.705,104.455z"/>
<path fill="none" d="M104.733,102.822c2.078,1.411,3.547,3.633,3.996,6.201h4.675c0.45-2.568,1.918-4.79,3.996-6.201H104.733z"/>
<path fill="#0894ec" d="M139.433,116.882v-0.022h-0.228h-2.16h-7.243c1.457-1.666,2.373-3.821,2.373-6.202
	c0-3.256-1.652-6.131-4.162-7.835h2.529c0.902,0,1.633-0.732,1.633-1.633V66.448c0-3.431-2.793-6.224-6.227-6.224
	c0,0-5.709-0.013-13.434-0.024v-2.404V46.241c0-0.578-0.307-1.112-0.804-1.405L61.069,14.899c-0.256-0.151-0.543-0.227-0.83-0.227
	c-0.288,0-0.574,0.076-0.83,0.227L8.768,44.836c-0.499,0.293-0.805,0.827-0.805,1.405v11.555v59.063H4.685h-2.16
	c-0.903,0-1.633,0.73-1.633,1.633c0,0.9,0.73,1.632,1.633,1.632h2.16h23.05h1.672h5.26h1.76h100.618h2.16h0.228v-0.023
	c0.793-0.112,1.406-0.786,1.406-1.609S140.226,116.994,139.433,116.882z M125.948,63.488c1.632,0,2.961,1.329,2.961,2.96v33.111
	H68.997V66.448c0-1.631,1.328-2.96,2.961-2.96H125.948z M22.818,49.615v8.181v59.063h-11.59V57.796V47.172l49.009-28.973
	l0.002,0.001v-0.001l49.01,28.973v10.625v2.399c-3.669-0.004-7.643-0.008-11.589-0.01v-2.389v-8.181c0-0.9-0.732-1.632-1.634-1.632
	H60.239H24.451C23.551,47.983,22.818,48.715,22.818,49.615z M36.427,116.859h-1.76h-5.26h-1.672h-1.652V57.796v-6.548h34.156h34.156
	v6.548v2.388c-12.133-0.001-23.127,0.021-23.093,0.106c-2.427,0.258-4.427,1.897-5.2,4.131h-9.779H42.127
	c-5.013,0-9.093,4.077-9.093,9.091v37.145c0,0.9,0.731,1.632,1.633,1.632h3.713c0.306,1.736,1.092,3.295,2.21,4.57H36.427z
	 M47.683,116.859c-3.421,0-6.203-2.782-6.203-6.202c0-3.421,2.781-6.202,6.203-6.202c3.422,0,6.203,2.781,6.203,6.202
	C53.886,114.077,51.104,116.859,47.683,116.859z M54.776,116.859c1.117-1.275,1.904-2.834,2.209-4.57h33.143
	c0.305,1.736,1.092,3.295,2.207,4.57H54.776z M90.128,109.023H56.985c-0.779-4.44-4.642-7.832-9.303-7.832
	c-4.66,0-8.523,3.392-9.303,7.832H36.3V73.513c0-3.214,2.612-5.827,5.827-5.827h23.606V99.02v2.17c0,0.9,0.731,1.633,1.632,1.633
	h26.76C92.046,104.233,90.579,106.455,90.128,109.023z M99.43,116.859c-3.421,0-6.202-2.782-6.202-6.202
	c0-3.421,2.781-6.202,6.202-6.202c3.419,0,6.202,2.781,6.202,6.202C105.632,114.077,102.849,116.859,99.43,116.859z
	 M106.522,116.859c1.117-1.275,1.903-2.834,2.207-4.57h4.675c0.305,1.736,1.093,3.295,2.208,4.57H106.522z M113.404,109.023h-4.675
	c-0.449-2.568-1.918-4.79-3.996-6.201H117.4C115.322,104.233,113.854,106.455,113.404,109.023z M122.705,116.859
	c-3.417,0-6.202-2.782-6.202-6.202c0-3.421,2.785-6.202,6.202-6.202c3.421,0,6.204,2.781,6.204,6.202
	C128.909,114.077,126.126,116.859,122.705,116.859z"/>
</svg>
