<?xml version="1.0" encoding="utf-8"?>
<!-- Generator: Adobe Illustrator 16.0.0, SVG Export Plug-In . SVG Version: 6.00 Build 0)  -->
<!DOCTYPE svg PUBLIC "-//W3C//DTD SVG 1.1//EN" "http://www.w3.org/Graphics/SVG/1.1/DTD/svg11.dtd">
<svg version="1.1" id="图层_3" xmlns="http://www.w3.org/2000/svg" xmlns:xlink="http://www.w3.org/1999/xlink" x="0px" y="0px"
	 width="141.73px" height="141.73px" viewBox="0 0 141.73 141.73" enable-background="new 0 0 141.73 141.73" xml:space="preserve">
<path fill="#f60" d="M135.632,117.722h-6.973V42.119c0-0.607-0.338-1.164-0.874-1.448L71.698,11.134
	c-0.478-0.252-1.049-0.252-1.525,0L14.085,40.671c-0.538,0.284-0.873,0.841-0.873,1.448v75.603H6.238
	c-0.903,0-1.635,0.732-1.635,1.636s0.732,1.636,1.635,1.636h8.608h12.655h20.804h22.629h22.631h20.803h12.655h8.608
	c0.902,0,1.636-0.732,1.636-1.636S136.534,117.722,135.632,117.722z M112.733,117.722H95.202V96.729
	c0-0.902-0.734-1.635-1.637-1.635h-9.682V74.098c0-0.901-0.732-1.635-1.636-1.635H59.622c-0.903,0-1.636,0.733-1.636,1.635v20.996
	h-9.681c-0.903,0-1.637,0.732-1.637,1.635v20.993H29.137V58.484h83.596V117.722z M70.935,95.094h-9.677V75.734H69.3v2.904
	c0,0.904,0.732,1.636,1.635,1.636c0.904,0,1.637-0.731,1.637-1.636v-2.904h8.041v19.359H70.935z M49.94,98.365h8.046v2.902
	c0,0.902,0.732,1.635,1.636,1.635s1.636-0.732,1.636-1.635v-2.902H69.3v19.356H49.94V98.365z M72.571,117.722V98.365h8.041v2.902
	c0,0.902,0.732,1.635,1.636,1.635s1.636-0.732,1.636-1.635v-2.902h8.047v19.356H72.571z M116.005,117.722V56.848
	c0-0.902-0.732-1.636-1.637-1.636H27.502c-0.902,0-1.636,0.734-1.636,1.636v60.874h-9.383V43.107l54.452-28.677l54.453,28.677
	v74.614H116.005z"/>
</svg>
