<?xml version="1.0" encoding="utf-8"?>
<!-- Generator: Adobe Illustrator 16.0.0, SVG Export Plug-In . SVG Version: 6.00 Build 0)  -->
<!DOCTYPE svg PUBLIC "-//W3C//DTD SVG 1.1//EN" "http://www.w3.org/Graphics/SVG/1.1/DTD/svg11.dtd">
<svg version="1.1" id="图层_2" xmlns="http://www.w3.org/2000/svg" xmlns:xlink="http://www.w3.org/1999/xlink" x="0px" y="0px"
	 width="141.73px" height="141.73px" viewBox="0 0 141.73 141.73" enable-background="new 0 0 141.73 141.73" xml:space="preserve">
<polygon fill="#4cd964" points="91.493,79.363 60.548,79.363 60.548,69.273 47.527,80.996 60.548,92.717 60.548,82.627 
	91.493,82.627 "/>
<rect x="14.47" y="73.459" fill="none" width="15.468" height="9.777"/>
<path fill="none" d="M70.936,103.906c-3.421,0-6.202,2.781-6.202,6.201c0,3.422,2.781,6.203,6.202,6.203
	c3.419,0,6.201-2.781,6.201-6.203C77.137,106.688,74.354,103.906,70.936,103.906z"/>
<path fill="none" d="M38.871,102.273c-0.899,0-1.632-0.732-1.632-1.633v-2.17V67.136H13.633c-3.215,0-5.828,2.613-5.828,5.826
	v35.513h2.081c0.779-4.441,4.644-7.834,9.304-7.834c4.661,0,8.523,3.393,9.303,7.834h33.143c0.449-2.569,1.919-4.791,3.997-6.201
	L38.871,102.273L38.871,102.273z M33.202,84.867c0,0.902-0.73,1.633-1.632,1.633H12.838c-0.901,0-1.632-0.729-1.632-1.633v-13.04
	c0-0.902,0.73-1.632,1.632-1.632H31.57c0.9,0,1.632,0.729,1.632,1.632V84.867z"/>
<path fill="none" d="M28.491,111.739c-0.306,1.736-1.092,3.295-2.209,4.571h37.561c-1.116-1.276-1.903-2.835-2.209-4.571H28.491z"/>
<path fill="none" d="M19.188,103.906c-3.421,0-6.204,2.781-6.204,6.201c0,3.422,2.782,6.203,6.204,6.203s6.204-2.781,6.204-6.203
	C25.392,106.688,22.61,103.906,19.188,103.906z"/>
<path fill="none" d="M37.607,63.872c0.754-2.173,2.669-3.771,5.005-4.096h-2.156h2.156c0.066-0.009,0.129-0.028,0.196-0.035
	c-0.076-0.188-0.123-0.391-0.123-0.605v-10.07c0-0.9,0.73-1.632,1.632-1.632h71.578c0.899,0,1.633,0.73,1.633,1.632v67.245h11.59
	V46.623L80.107,17.65L31.093,46.623v17.25h1.708L37.607,63.872L37.607,63.872z"/>
<path fill="none" d="M94.21,103.906c-3.417,0-6.201,2.781-6.201,6.201c0,3.422,2.784,6.203,6.201,6.203
	c3.422,0,6.205-2.781,6.205-6.203C100.415,106.688,97.632,103.906,94.21,103.906z"/>
<path fill="none" d="M40.504,65.898v33.108h59.911V65.898c0-1.632-1.329-2.96-2.961-2.96H43.463
	C41.832,62.938,40.504,64.267,40.504,65.898z"/>
<path fill="none" d="M80.235,111.739c-0.304,1.736-1.09,3.295-2.207,4.571h9.09c-1.116-1.276-1.904-2.835-2.208-4.571H80.235z"/>
<path fill="none" d="M76.239,102.273c2.078,1.41,3.546,3.632,3.996,6.201h4.675c0.45-2.569,1.918-4.791,3.996-6.201H76.239z"/>
<path fill="#4cd964" d="M31.57,70.195H12.838c-0.901,0-1.632,0.729-1.632,1.632v13.04c0,0.902,0.73,1.633,1.632,1.633H31.57
	c0.9,0,1.632-0.729,1.632-1.633v-13.04C33.202,70.925,32.47,70.195,31.57,70.195z M29.938,83.236H14.47v-9.777h15.468V83.236z"/>
<path fill="#4cd964" d="M137.821,116.311h-5.438v-70.62c0-0.578-0.307-1.111-0.805-1.405L80.937,14.35
	c-0.511-0.303-1.146-0.303-1.66,0L28.63,44.286c-0.497,0.294-0.8,0.827-0.8,1.405v18.181h-1.708H13.633
	c-5.013,0-9.093,4.077-9.093,9.091v37.146c0,0.899,0.731,1.632,1.633,1.632h3.713c0.306,1.736,1.093,3.295,2.208,4.571H6.172
	c-0.9,0-1.633,0.729-1.633,1.633c0,0.9,0.731,1.631,1.633,1.631h101.065h30.584c0.902,0,1.633-0.729,1.633-1.631
	C139.454,117.04,138.724,116.311,137.821,116.311z M19.188,116.311c-3.421,0-6.204-2.781-6.204-6.203
	c0-3.42,2.782-6.201,6.204-6.201s6.204,2.781,6.204,6.201C25.392,113.529,22.61,116.311,19.188,116.311z M26.282,116.311
	c1.117-1.276,1.903-2.835,2.209-4.571h33.143c0.306,1.736,1.093,3.295,2.209,4.571H26.282z M61.634,108.475H28.491
	c-0.779-4.441-4.642-7.834-9.303-7.834c-4.66,0-8.524,3.393-9.304,7.834h-2.08V72.963c0-3.213,2.612-5.826,5.828-5.826h23.606V98.47
	v2.171c0,0.899,0.731,1.633,1.632,1.633h26.76C63.552,103.684,62.083,105.905,61.634,108.475z M97.454,62.938
	c1.632,0,2.961,1.329,2.961,2.96v33.108H40.504V65.898c0-1.632,1.328-2.96,2.959-2.96H97.454z M70.936,116.311
	c-3.421,0-6.202-2.781-6.202-6.203c0-3.42,2.781-6.201,6.202-6.201c3.419,0,6.201,2.781,6.201,6.201
	C77.137,113.529,74.354,116.311,70.936,116.311z M78.028,116.311c1.117-1.276,1.903-2.835,2.207-4.571h4.675
	c0.304,1.736,1.092,3.295,2.208,4.571H78.028z M84.91,108.475h-4.675c-0.45-2.569-1.918-4.791-3.996-6.201h12.667
	C86.828,103.684,85.36,105.905,84.91,108.475z M94.21,116.311c-3.417,0-6.201-2.781-6.201-6.203c0-3.42,2.784-6.201,6.201-6.201
	c3.422,0,6.205,2.781,6.205,6.201C100.415,113.529,97.632,116.311,94.21,116.311z M114.263,116.311h-7.025h-5.931
	c1.458-1.668,2.374-3.822,2.374-6.203c0-3.256-1.652-6.131-4.163-7.834h2.529c0.902,0,1.634-0.732,1.634-1.633V65.898
	c0-3.433-2.793-6.225-6.228-6.225H45.841c0.062-0.17,0.109-0.348,0.109-0.54v-8.437h68.313V116.311z M129.118,116.311h-11.59V49.065
	c0-0.9-0.732-1.632-1.633-1.632H44.317c-0.9,0-1.632,0.73-1.632,1.632v10.068c0,0.216,0.047,0.419,0.123,0.606
	c-0.067,0.007-0.13,0.026-0.196,0.035c-2.336,0.324-4.251,1.923-5.005,4.096h-4.806h-1.708v-17.25L80.107,17.65l49.011,28.972
	V116.311L129.118,116.311z"/>
</svg>
